<?xml version="1.0" encoding="UTF-8" standalone="no"?> <svg width="337.961mm" height="58.2083mm"  viewBox="0 0 958.951 165.892"  xmlns="http://www.w3.org/2000/svg" xmlns:xlink="http://www.w3.org/1999/xlink"  version="1.2" baseProfile="tiny"> <title>Generated with ETE http://etetoolkit.org</title> <desc>Generated with ETE http://etetoolkit.org</desc> <defs> </defs> <g fill="none" stroke="black" stroke-width="1" fill-rule="evenodd" stroke-linecap="square" stroke-linejoin="bevel" >      <g fill="none" stroke="none" transform="matrix(1,0,0,1,0,0)" font-family="Sans Serif" font-size="9pt" font-weight="400" font-style="normal"  > <rect x="0" y="0" width="958.451" height="165.892"/> </g>      <g fill="none" stroke="none" transform="matrix(1,0,0,1,1,50.8923)" font-family="Sans Serif" font-size="9pt" font-weight="400" font-style="normal"  > <rect x="0" y="-49.8923" width="956.451" height="113.892"/> </g>                                      <g fill="none" stroke="#000000" stroke-opacity="1" stroke-width="1" stroke-linecap="square" stroke-linejoin="bevel" transform="matrix(0.866025,-0.5,0.5,0.866025,565.801,32.75)" font-family="Verdana" font-size="7pt" font-weight="400" font-style="normal"  > <text fill="#000000" fill-opacity="1" stroke="none" xml:space="preserve" x="0" y="9" font-family="Verdana" font-size="7pt" font-weight="400" font-style="normal"   >Size (Mbp)</text> </g>      <g fill="none" stroke="#000000" stroke-opacity="1" stroke-width="1" stroke-linecap="square" stroke-linejoin="bevel" transform="matrix(0.866025,-0.5,0.5,0.866025,645.761,27)" font-family="Verdana" font-size="7pt" font-weight="400" font-style="normal"  > <text fill="#000000" fill-opacity="1" stroke="none" xml:space="preserve" x="0" y="9" font-family="Verdana" font-size="7pt" font-weight="400" font-style="normal"   >GC %</text> </g>      <g fill="none" stroke="#000000" stroke-opacity="1" stroke-width="1" stroke-linecap="square" stroke-linejoin="bevel" transform="matrix(0.866025,-0.5,0.5,0.866025,702.586,40.5)" font-family="Verdana" font-size="7pt" font-weight="400" font-style="normal"  > <text fill="#000000" fill-opacity="1" stroke="none" xml:space="preserve" x="0" y="9" font-family="Verdana" font-size="7pt" font-weight="400" font-style="normal"   >Coding density %</text> </g>      <g fill="none" stroke="#000000" stroke-opacity="1" stroke-width="1" stroke-linecap="square" stroke-linejoin="bevel" transform="matrix(0.866025,-0.5,0.5,0.866025,807.002,36.75)" font-family="Verdana" font-size="7pt" font-weight="400" font-style="normal"  > <text fill="#000000" fill-opacity="1" stroke="none" xml:space="preserve" x="0" y="9" font-family="Verdana" font-size="7pt" font-weight="400" font-style="normal"   >Completeness</text> </g>      <g fill="none" stroke="#000000" stroke-opacity="1" stroke-width="1" stroke-linecap="square" stroke-linejoin="bevel" transform="matrix(0.866025,-0.5,0.5,0.866025,893.428,37.5)" font-family="Verdana" font-size="7pt" font-weight="400" font-style="normal"  > <text fill="#000000" fill-opacity="1" stroke="none" xml:space="preserve" x="0" y="9" font-family="Verdana" font-size="7pt" font-weight="400" font-style="normal"   >Contamination</text> </g>          <g fill="none" stroke="#000000" stroke-opacity="1" stroke-width="1" stroke-linecap="butt" stroke-linejoin="bevel" transform="matrix(1,0,0,1,1,50.8923)" font-family="Sans Serif" font-size="9pt" font-weight="400" font-style="normal"  > <polyline fill="none" vector-effect="non-scaling-stroke" points="3,16 3,48 " /> </g>                  <g fill="#0030c1" fill-opacity="1" stroke="#0030c1" stroke-opacity="1" stroke-width="1" stroke-linecap="square" stroke-linejoin="bevel" transform="matrix(1,0,0,1,1,81.3923)" font-family="Sans Serif" font-size="9pt" font-weight="400" font-style="normal"  > <circle cx="1.5" cy="1.5" r="1.5"/> </g>                  <g fill="none" stroke="#000000" stroke-opacity="1" stroke-width="1" stroke-linecap="butt" stroke-linejoin="bevel" transform="matrix(1,0,0,1,4,50.8923)" font-family="Sans Serif" font-size="9pt" font-weight="400" font-style="normal"  > <polyline fill="none" vector-effect="non-scaling-stroke" points="180.573,8 180.573,24 " /> </g>            <g fill="none" stroke="#000000" stroke-opacity="1" stroke-width="1" stroke-linecap="butt" stroke-linejoin="bevel" transform="matrix(1,0,0,1,4,50.8923)" font-family="Sans Serif" font-size="9pt" font-weight="400" font-style="normal"  > <polyline fill="none" vector-effect="non-scaling-stroke" points="0,16 177.573,16 " /> </g>      <g fill="#0030c1" fill-opacity="1" stroke="#0030c1" stroke-opacity="1" stroke-width="1" stroke-linecap="square" stroke-linejoin="bevel" transform="matrix(1,0,0,1,181.573,65.3923)" font-family="Sans Serif" font-size="9pt" font-weight="400" font-style="normal"  > <circle cx="1.5" cy="1.5" r="1.5"/> </g>                        <g fill="none" stroke="#000000" stroke-opacity="1" stroke-width="1" stroke-linecap="butt" stroke-linejoin="bevel" transform="matrix(1,0,0,1,184.573,50.8923)" font-family="Sans Serif" font-size="9pt" font-weight="400" font-style="normal"  > <polyline fill="none" vector-effect="non-scaling-stroke" points="0,8 2.01273,8 " /> </g>      <g fill="#0030c1" fill-opacity="1" stroke="#0030c1" stroke-opacity="1" stroke-width="1" stroke-linecap="square" stroke-linejoin="bevel" transform="matrix(1,0,0,1,186.586,57.3923)" font-family="Sans Serif" font-size="9pt" font-weight="400" font-style="normal"  > <circle cx="1.5" cy="1.5" r="1.5"/> </g>          <g fill="none" stroke="#000000" stroke-opacity="1" stroke-width="1" stroke-linecap="square" stroke-linejoin="bevel" transform="matrix(1,0,0,1,189.586,52.8923)" font-family="Verdana" font-size="7pt" font-weight="400" font-style="italic"  > <text fill="#000000" fill-opacity="1" stroke="none" xml:space="preserve" x="0" y="9" font-family="Verdana" font-size="7pt" font-weight="400" font-style="italic"   >Staphylococcus aureus strain DSM 20231 chromosome, complete genome</text> </g>                  <g fill="none" stroke="#000000" stroke-opacity="1" stroke-width="1" stroke-linecap="square" stroke-linejoin="bevel" transform="matrix(1,0,0,1,539.586,52.8923)" font-family="Verdana" font-size="7pt" font-weight="400" font-style="normal"  > <text fill="#000000" fill-opacity="1" stroke="none" xml:space="preserve" x="0" y="9" font-family="Verdana" font-size="7pt" font-weight="400" font-style="normal"   >2.78</text> </g>      <g fill="none" stroke="#ffffff" stroke-opacity="1" stroke-width="3" stroke-linecap="butt" stroke-linejoin="bevel" transform="matrix(1,0,0,1,537.586,50.8923)" font-family="Sans Serif" font-size="9pt" font-weight="400" font-style="normal"  > <rect x="0" y="0" width="25" height="16"/> </g>      <g fill="#91bfdb" fill-opacity="1" stroke="none" transform="matrix(1,0,0,1,564.586,54.3923)" font-family="Sans Serif" font-size="9pt" font-weight="400" font-style="normal"  > <rect x="0" y="0" width="0" height="9"/> </g>  <g fill="#ffffff" fill-opacity="1" stroke="none" transform="matrix(1,0,0,1,564.586,54.3923)" font-family="Sans Serif" font-size="9pt" font-weight="400" font-style="normal"  > <rect x="0" y="0" width="50" height="9"/> </g>      <g fill="none" stroke="#000000" stroke-opacity="1" stroke-width="1" stroke-linecap="butt" stroke-linejoin="bevel" transform="matrix(1,0,0,1,564.586,54.3923)" font-family="Sans Serif" font-size="9pt" font-weight="400" font-style="normal"  > <rect vector-effect="non-scaling-stroke" x="-0.5" y="-0.5" width="51" height="10"/> </g>      <g fill="none" stroke="#ffffff" stroke-opacity="1" stroke-width="3" stroke-linecap="butt" stroke-linejoin="bevel" transform="matrix(1,0,0,1,537.586,50.8923)" font-family="Sans Serif" font-size="9pt" font-weight="400" font-style="normal"  > <rect x="25" y="0" width="54" height="16"/> </g>      <g fill="none" stroke="#000000" stroke-opacity="1" stroke-width="1" stroke-linecap="square" stroke-linejoin="bevel" transform="matrix(1,0,0,1,618.586,52.8923)" font-family="Verdana" font-size="7pt" font-weight="400" font-style="normal"  > <text fill="#000000" fill-opacity="1" stroke="none" xml:space="preserve" x="0" y="9" font-family="Verdana" font-size="7pt" font-weight="400" font-style="normal"   >33</text> </g>      <g fill="none" stroke="#ffffff" stroke-opacity="1" stroke-width="3" stroke-linecap="butt" stroke-linejoin="bevel" transform="matrix(1,0,0,1,537.586,50.8923)" font-family="Sans Serif" font-size="9pt" font-weight="400" font-style="normal"  > <rect x="79" y="0" width="16" height="16"/> </g>      <g fill="#fc8d59" fill-opacity="1" stroke="none" transform="matrix(1,0,0,1,634.586,54.3923)" font-family="Sans Serif" font-size="9pt" font-weight="400" font-style="normal"  > <rect x="0" y="0" width="16.5" height="9"/> </g>  <g fill="#ffffff" fill-opacity="1" stroke="none" transform="matrix(1,0,0,1,634.586,54.3923)" font-family="Sans Serif" font-size="9pt" font-weight="400" font-style="normal"  > <rect x="16.5" y="0" width="33.5" height="9"/> </g>      <g fill="none" stroke="#000000" stroke-opacity="1" stroke-width="1" stroke-linecap="butt" stroke-linejoin="bevel" transform="matrix(1,0,0,1,634.586,54.3923)" font-family="Sans Serif" font-size="9pt" font-weight="400" font-style="normal"  > <rect vector-effect="non-scaling-stroke" x="-0.5" y="-0.5" width="51" height="10"/> </g>      <g fill="none" stroke="#ffffff" stroke-opacity="1" stroke-width="3" stroke-linecap="butt" stroke-linejoin="bevel" transform="matrix(1,0,0,1,537.586,50.8923)" font-family="Sans Serif" font-size="9pt" font-weight="400" font-style="normal"  > <rect x="95" y="0" width="54" height="16"/> </g>      <g fill="none" stroke="#000000" stroke-opacity="1" stroke-width="1" stroke-linecap="square" stroke-linejoin="bevel" transform="matrix(1,0,0,1,688.586,52.8923)" font-family="Verdana" font-size="7pt" font-weight="400" font-style="normal"  > <text fill="#000000" fill-opacity="1" stroke="none" xml:space="preserve" x="0" y="9" font-family="Verdana" font-size="7pt" font-weight="400" font-style="normal"   >84</text> </g>      <g fill="none" stroke="#ffffff" stroke-opacity="1" stroke-width="3" stroke-linecap="butt" stroke-linejoin="bevel" transform="matrix(1,0,0,1,537.586,50.8923)" font-family="Sans Serif" font-size="9pt" font-weight="400" font-style="normal"  > <rect x="149" y="0" width="16" height="16"/> </g>      <g fill="#99d594" fill-opacity="1" stroke="none" transform="matrix(1,0,0,1,714.794,54.3923)" font-family="Sans Serif" font-size="9pt" font-weight="400" font-style="normal"  > <rect x="0" y="0" width="42" height="9"/> </g>  <g fill="#ffffff" fill-opacity="1" stroke="none" transform="matrix(1,0,0,1,714.794,54.3923)" font-family="Sans Serif" font-size="9pt" font-weight="400" font-style="normal"  > <rect x="42" y="0" width="8" height="9"/> </g>      <g fill="none" stroke="#000000" stroke-opacity="1" stroke-width="1" stroke-linecap="butt" stroke-linejoin="bevel" transform="matrix(1,0,0,1,714.794,54.3923)" font-family="Sans Serif" font-size="9pt" font-weight="400" font-style="normal"  > <rect vector-effect="non-scaling-stroke" x="-0.5" y="-0.5" width="51" height="10"/> </g>      <g fill="none" stroke="#ffffff" stroke-opacity="1" stroke-width="3" stroke-linecap="butt" stroke-linejoin="bevel" transform="matrix(1,0,0,1,537.586,50.8923)" font-family="Sans Serif" font-size="9pt" font-weight="400" font-style="normal"  > <rect x="165" y="0" width="74.416" height="16"/> </g>      <g fill="none" stroke="#000000" stroke-opacity="1" stroke-width="1" stroke-linecap="square" stroke-linejoin="bevel" transform="matrix(1,0,0,1,779.002,52.8923)" font-family="Verdana" font-size="7pt" font-weight="400" font-style="normal"  > <text fill="#000000" fill-opacity="1" stroke="none" xml:space="preserve" x="0" y="9" font-family="Verdana" font-size="7pt" font-weight="400" font-style="normal"   >98.28</text> </g>      <g fill="none" stroke="#ffffff" stroke-opacity="1" stroke-width="3" stroke-linecap="butt" stroke-linejoin="bevel" transform="matrix(1,0,0,1,537.586,50.8923)" font-family="Sans Serif" font-size="9pt" font-weight="400" font-style="normal"  > <rect x="239.416" y="0" width="30" height="16"/> </g>      <g fill="#d7191c" fill-opacity="1" stroke="none" transform="matrix(1,0,0,1,812.715,54.3923)" font-family="Sans Serif" font-size="9pt" font-weight="400" font-style="normal"  > <rect x="0" y="0" width="49.14" height="9"/> </g>  <g fill="#ffffff" fill-opacity="1" stroke="none" transform="matrix(1,0,0,1,812.715,54.3923)" font-family="Sans Serif" font-size="9pt" font-weight="400" font-style="normal"  > <rect x="49.14" y="0" width="0.86" height="9"/> </g>      <g fill="none" stroke="#000000" stroke-opacity="1" stroke-width="1" stroke-linecap="butt" stroke-linejoin="bevel" transform="matrix(1,0,0,1,812.715,54.3923)" font-family="Sans Serif" font-size="9pt" font-weight="400" font-style="normal"  > <rect vector-effect="non-scaling-stroke" x="-0.5" y="-0.5" width="51" height="10"/> </g>      <g fill="none" stroke="#ffffff" stroke-opacity="1" stroke-width="3" stroke-linecap="butt" stroke-linejoin="bevel" transform="matrix(1,0,0,1,537.586,50.8923)" font-family="Sans Serif" font-size="9pt" font-weight="400" font-style="normal"  > <rect x="269.416" y="0" width="61.4256" height="16"/> </g>      <g fill="none" stroke="#000000" stroke-opacity="1" stroke-width="1" stroke-linecap="square" stroke-linejoin="bevel" transform="matrix(1,0,0,1,873.428,52.8923)" font-family="Verdana" font-size="7pt" font-weight="400" font-style="normal"  > <text fill="#000000" fill-opacity="1" stroke="none" xml:space="preserve" x="0" y="9" font-family="Verdana" font-size="7pt" font-weight="400" font-style="normal"   >0.0</text> </g>      <g fill="none" stroke="#ffffff" stroke-opacity="1" stroke-width="3" stroke-linecap="butt" stroke-linejoin="bevel" transform="matrix(1,0,0,1,537.586,50.8923)" font-family="Sans Serif" font-size="9pt" font-weight="400" font-style="normal"  > <rect x="330.842" y="0" width="25" height="16"/> </g>      <g fill="#000000" fill-opacity="1" stroke="none" transform="matrix(1,0,0,1,900.439,54.3923)" font-family="Sans Serif" font-size="9pt" font-weight="400" font-style="normal"  > <rect x="0" y="0" width="0" height="9"/> </g>  <g fill="#ffffff" fill-opacity="1" stroke="none" transform="matrix(1,0,0,1,900.439,54.3923)" font-family="Sans Serif" font-size="9pt" font-weight="400" font-style="normal"  > <rect x="0" y="0" width="50" height="9"/> </g>      <g fill="none" stroke="#000000" stroke-opacity="1" stroke-width="1" stroke-linecap="butt" stroke-linejoin="bevel" transform="matrix(1,0,0,1,900.439,54.3923)" font-family="Sans Serif" font-size="9pt" font-weight="400" font-style="normal"  > <rect vector-effect="non-scaling-stroke" x="-0.5" y="-0.5" width="51" height="10"/> </g>      <g fill="none" stroke="#ffffff" stroke-opacity="1" stroke-width="3" stroke-linecap="butt" stroke-linejoin="bevel" transform="matrix(1,0,0,1,537.586,50.8923)" font-family="Sans Serif" font-size="9pt" font-weight="400" font-style="normal"  > <rect x="355.842" y="0" width="64.0237" height="16"/> </g>      <g fill="none" stroke="#808080" stroke-opacity="1" stroke-dasharray="1,2" stroke-dashoffset="0" stroke-width="1" stroke-linecap="butt" stroke-linejoin="bevel" transform="matrix(1,0,0,1,184.573,50.8923)" font-family="Sans Serif" font-size="9pt" font-weight="400" font-style="normal"  > <polyline fill="none" vector-effect="non-scaling-stroke" points="352.013,8 353.013,8 " /> </g>            <g fill="none" stroke="#000000" stroke-opacity="1" stroke-width="1" stroke-linecap="butt" stroke-linejoin="bevel" transform="matrix(1,0,0,1,184.573,66.8923)" font-family="Sans Serif" font-size="9pt" font-weight="400" font-style="normal"  > <polyline fill="none" vector-effect="non-scaling-stroke" points="0,8 2.42682,8 " /> </g>      <g fill="#0030c1" fill-opacity="1" stroke="#0030c1" stroke-opacity="1" stroke-width="1" stroke-linecap="square" stroke-linejoin="bevel" transform="matrix(1,0,0,1,187,73.3923)" font-family="Sans Serif" font-size="9pt" font-weight="400" font-style="normal"  > <circle cx="1.5" cy="1.5" r="1.5"/> </g>          <g fill="none" stroke="#000000" stroke-opacity="1" stroke-width="1" stroke-linecap="square" stroke-linejoin="bevel" transform="matrix(1,0,0,1,190,68.8923)" font-family="Verdana" font-size="7pt" font-weight="400" font-style="italic"  > <text fill="#000000" fill-opacity="1" stroke="none" xml:space="preserve" x="0" y="9" font-family="Verdana" font-size="7pt" font-weight="400" font-style="italic"   >Staphylococcus aureus strain 3487</text> </g>                  <g fill="none" stroke="#000000" stroke-opacity="1" stroke-width="1" stroke-linecap="square" stroke-linejoin="bevel" transform="matrix(1,0,0,1,542.586,68.8923)" font-family="Verdana" font-size="7pt" font-weight="400" font-style="normal"  > <text fill="#000000" fill-opacity="1" stroke="none" xml:space="preserve" x="0" y="9" font-family="Verdana" font-size="7pt" font-weight="400" font-style="normal"   >2.8</text> </g>      <g fill="none" stroke="#ffffff" stroke-opacity="1" stroke-width="3" stroke-linecap="butt" stroke-linejoin="bevel" transform="matrix(1,0,0,1,537.586,66.8923)" font-family="Sans Serif" font-size="9pt" font-weight="400" font-style="normal"  > <rect x="0" y="0" width="25" height="16"/> </g>      <g fill="#91bfdb" fill-opacity="1" stroke="none" transform="matrix(1,0,0,1,564.586,70.3923)" font-family="Sans Serif" font-size="9pt" font-weight="400" font-style="normal"  > <rect x="0" y="0" width="0.357143" height="9"/> </g>  <g fill="#ffffff" fill-opacity="1" stroke="none" transform="matrix(1,0,0,1,564.586,70.3923)" font-family="Sans Serif" font-size="9pt" font-weight="400" font-style="normal"  > <rect x="0.357143" y="0" width="49.6429" height="9"/> </g>      <g fill="none" stroke="#000000" stroke-opacity="1" stroke-width="1" stroke-linecap="butt" stroke-linejoin="bevel" transform="matrix(1,0,0,1,564.586,70.3923)" font-family="Sans Serif" font-size="9pt" font-weight="400" font-style="normal"  > <rect vector-effect="non-scaling-stroke" x="-0.5" y="-0.5" width="51" height="10"/> </g>      <g fill="none" stroke="#ffffff" stroke-opacity="1" stroke-width="3" stroke-linecap="butt" stroke-linejoin="bevel" transform="matrix(1,0,0,1,537.586,66.8923)" font-family="Sans Serif" font-size="9pt" font-weight="400" font-style="normal"  > <rect x="25" y="0" width="54" height="16"/> </g>      <g fill="none" stroke="#000000" stroke-opacity="1" stroke-width="1" stroke-linecap="square" stroke-linejoin="bevel" transform="matrix(1,0,0,1,618.586,68.8923)" font-family="Verdana" font-size="7pt" font-weight="400" font-style="normal"  > <text fill="#000000" fill-opacity="1" stroke="none" xml:space="preserve" x="0" y="9" font-family="Verdana" font-size="7pt" font-weight="400" font-style="normal"   >33</text> </g>      <g fill="none" stroke="#ffffff" stroke-opacity="1" stroke-width="3" stroke-linecap="butt" stroke-linejoin="bevel" transform="matrix(1,0,0,1,537.586,66.8923)" font-family="Sans Serif" font-size="9pt" font-weight="400" font-style="normal"  > <rect x="79" y="0" width="16" height="16"/> </g>      <g fill="#fc8d59" fill-opacity="1" stroke="none" transform="matrix(1,0,0,1,634.586,70.3923)" font-family="Sans Serif" font-size="9pt" font-weight="400" font-style="normal"  > <rect x="0" y="0" width="16.5" height="9"/> </g>  <g fill="#ffffff" fill-opacity="1" stroke="none" transform="matrix(1,0,0,1,634.586,70.3923)" font-family="Sans Serif" font-size="9pt" font-weight="400" font-style="normal"  > <rect x="16.5" y="0" width="33.5" height="9"/> </g>      <g fill="none" stroke="#000000" stroke-opacity="1" stroke-width="1" stroke-linecap="butt" stroke-linejoin="bevel" transform="matrix(1,0,0,1,634.586,70.3923)" font-family="Sans Serif" font-size="9pt" font-weight="400" font-style="normal"  > <rect vector-effect="non-scaling-stroke" x="-0.5" y="-0.5" width="51" height="10"/> </g>      <g fill="none" stroke="#ffffff" stroke-opacity="1" stroke-width="3" stroke-linecap="butt" stroke-linejoin="bevel" transform="matrix(1,0,0,1,537.586,66.8923)" font-family="Sans Serif" font-size="9pt" font-weight="400" font-style="normal"  > <rect x="95" y="0" width="54" height="16"/> </g>      <g fill="none" stroke="#000000" stroke-opacity="1" stroke-width="1" stroke-linecap="square" stroke-linejoin="bevel" transform="matrix(1,0,0,1,688.586,68.8923)" font-family="Verdana" font-size="7pt" font-weight="400" font-style="normal"  > <text fill="#000000" fill-opacity="1" stroke="none" xml:space="preserve" x="0" y="9" font-family="Verdana" font-size="7pt" font-weight="400" font-style="normal"   >84</text> </g>      <g fill="none" stroke="#ffffff" stroke-opacity="1" stroke-width="3" stroke-linecap="butt" stroke-linejoin="bevel" transform="matrix(1,0,0,1,537.586,66.8923)" font-family="Sans Serif" font-size="9pt" font-weight="400" font-style="normal"  > <rect x="149" y="0" width="16" height="16"/> </g>      <g fill="#99d594" fill-opacity="1" stroke="none" transform="matrix(1,0,0,1,714.794,70.3923)" font-family="Sans Serif" font-size="9pt" font-weight="400" font-style="normal"  > <rect x="0" y="0" width="42" height="9"/> </g>  <g fill="#ffffff" fill-opacity="1" stroke="none" transform="matrix(1,0,0,1,714.794,70.3923)" font-family="Sans Serif" font-size="9pt" font-weight="400" font-style="normal"  > <rect x="42" y="0" width="8" height="9"/> </g>      <g fill="none" stroke="#000000" stroke-opacity="1" stroke-width="1" stroke-linecap="butt" stroke-linejoin="bevel" transform="matrix(1,0,0,1,714.794,70.3923)" font-family="Sans Serif" font-size="9pt" font-weight="400" font-style="normal"  > <rect vector-effect="non-scaling-stroke" x="-0.5" y="-0.5" width="51" height="10"/> </g>      <g fill="none" stroke="#ffffff" stroke-opacity="1" stroke-width="3" stroke-linecap="butt" stroke-linejoin="bevel" transform="matrix(1,0,0,1,537.586,66.8923)" font-family="Sans Serif" font-size="9pt" font-weight="400" font-style="normal"  > <rect x="165" y="0" width="74.416" height="16"/> </g>      <g fill="none" stroke="#000000" stroke-opacity="1" stroke-width="1" stroke-linecap="square" stroke-linejoin="bevel" transform="matrix(1,0,0,1,779.002,68.8923)" font-family="Verdana" font-size="7pt" font-weight="400" font-style="normal"  > <text fill="#000000" fill-opacity="1" stroke="none" xml:space="preserve" x="0" y="9" font-family="Verdana" font-size="7pt" font-weight="400" font-style="normal"   >98.28</text> </g>      <g fill="none" stroke="#ffffff" stroke-opacity="1" stroke-width="3" stroke-linecap="butt" stroke-linejoin="bevel" transform="matrix(1,0,0,1,537.586,66.8923)" font-family="Sans Serif" font-size="9pt" font-weight="400" font-style="normal"  > <rect x="239.416" y="0" width="30" height="16"/> </g>      <g fill="#d7191c" fill-opacity="1" stroke="none" transform="matrix(1,0,0,1,812.715,70.3923)" font-family="Sans Serif" font-size="9pt" font-weight="400" font-style="normal"  > <rect x="0" y="0" width="49.14" height="9"/> </g>  <g fill="#ffffff" fill-opacity="1" stroke="none" transform="matrix(1,0,0,1,812.715,70.3923)" font-family="Sans Serif" font-size="9pt" font-weight="400" font-style="normal"  > <rect x="49.14" y="0" width="0.86" height="9"/> </g>      <g fill="none" stroke="#000000" stroke-opacity="1" stroke-width="1" stroke-linecap="butt" stroke-linejoin="bevel" transform="matrix(1,0,0,1,812.715,70.3923)" font-family="Sans Serif" font-size="9pt" font-weight="400" font-style="normal"  > <rect vector-effect="non-scaling-stroke" x="-0.5" y="-0.5" width="51" height="10"/> </g>      <g fill="none" stroke="#ffffff" stroke-opacity="1" stroke-width="3" stroke-linecap="butt" stroke-linejoin="bevel" transform="matrix(1,0,0,1,537.586,66.8923)" font-family="Sans Serif" font-size="9pt" font-weight="400" font-style="normal"  > <rect x="269.416" y="0" width="61.4256" height="16"/> </g>      <g fill="none" stroke="#000000" stroke-opacity="1" stroke-width="1" stroke-linecap="square" stroke-linejoin="bevel" transform="matrix(1,0,0,1,873.428,68.8923)" font-family="Verdana" font-size="7pt" font-weight="400" font-style="normal"  > <text fill="#000000" fill-opacity="1" stroke="none" xml:space="preserve" x="0" y="9" font-family="Verdana" font-size="7pt" font-weight="400" font-style="normal"   >0.0</text> </g>      <g fill="none" stroke="#ffffff" stroke-opacity="1" stroke-width="3" stroke-linecap="butt" stroke-linejoin="bevel" transform="matrix(1,0,0,1,537.586,66.8923)" font-family="Sans Serif" font-size="9pt" font-weight="400" font-style="normal"  > <rect x="330.842" y="0" width="25" height="16"/> </g>      <g fill="#000000" fill-opacity="1" stroke="none" transform="matrix(1,0,0,1,900.439,70.3923)" font-family="Sans Serif" font-size="9pt" font-weight="400" font-style="normal"  > <rect x="0" y="0" width="0" height="9"/> </g>  <g fill="#ffffff" fill-opacity="1" stroke="none" transform="matrix(1,0,0,1,900.439,70.3923)" font-family="Sans Serif" font-size="9pt" font-weight="400" font-style="normal"  > <rect x="0" y="0" width="50" height="9"/> </g>      <g fill="none" stroke="#000000" stroke-opacity="1" stroke-width="1" stroke-linecap="butt" stroke-linejoin="bevel" transform="matrix(1,0,0,1,900.439,70.3923)" font-family="Sans Serif" font-size="9pt" font-weight="400" font-style="normal"  > <rect vector-effect="non-scaling-stroke" x="-0.5" y="-0.5" width="51" height="10"/> </g>      <g fill="none" stroke="#ffffff" stroke-opacity="1" stroke-width="3" stroke-linecap="butt" stroke-linejoin="bevel" transform="matrix(1,0,0,1,537.586,66.8923)" font-family="Sans Serif" font-size="9pt" font-weight="400" font-style="normal"  > <rect x="355.842" y="0" width="64.0237" height="16"/> </g>      <g fill="none" stroke="#808080" stroke-opacity="1" stroke-dasharray="1,2" stroke-dashoffset="0" stroke-width="1" stroke-linecap="butt" stroke-linejoin="bevel" transform="matrix(1,0,0,1,184.573,66.8923)" font-family="Sans Serif" font-size="9pt" font-weight="400" font-style="normal"  > <polyline fill="none" vector-effect="non-scaling-stroke" points="174.427,8 353.013,8 " /> </g>      <g fill="none" stroke="#000000" stroke-opacity="1" stroke-width="1" stroke-linecap="butt" stroke-linejoin="bevel" transform="matrix(1,0,0,1,4,82.8923)" font-family="Sans Serif" font-size="9pt" font-weight="400" font-style="normal"  > <polyline fill="none" vector-effect="non-scaling-stroke" points="180.573,8 180.573,24 " /> </g>            <g fill="none" stroke="#000000" stroke-opacity="1" stroke-width="1" stroke-linecap="butt" stroke-linejoin="bevel" transform="matrix(1,0,0,1,4,82.8923)" font-family="Sans Serif" font-size="9pt" font-weight="400" font-style="normal"  > <polyline fill="none" vector-effect="non-scaling-stroke" points="0,16 177.573,16 " /> </g>      <g fill="#0030c1" fill-opacity="1" stroke="#0030c1" stroke-opacity="1" stroke-width="1" stroke-linecap="square" stroke-linejoin="bevel" transform="matrix(1,0,0,1,181.573,97.3923)" font-family="Sans Serif" font-size="9pt" font-weight="400" font-style="normal"  > <circle cx="1.5" cy="1.5" r="1.5"/> </g>                        <g fill="none" stroke="#000000" stroke-opacity="1" stroke-width="1" stroke-linecap="butt" stroke-linejoin="bevel" transform="matrix(1,0,0,1,184.573,82.8923)" font-family="Sans Serif" font-size="9pt" font-weight="400" font-style="normal"  > <polyline fill="none" vector-effect="non-scaling-stroke" points="0,8 0.0010769,8 " /> </g>      <g fill="#0030c1" fill-opacity="1" stroke="#0030c1" stroke-opacity="1" stroke-width="1" stroke-linecap="square" stroke-linejoin="bevel" transform="matrix(1,0,0,1,184.574,89.3923)" font-family="Sans Serif" font-size="9pt" font-weight="400" font-style="normal"  > <circle cx="1.5" cy="1.5" r="1.5"/> </g>          <g fill="none" stroke="#000000" stroke-opacity="1" stroke-width="1" stroke-linecap="square" stroke-linejoin="bevel" transform="matrix(1,0,0,1,187.574,84.8923)" font-family="Verdana" font-size="7pt" font-weight="400" font-style="italic"  > <text fill="#000000" fill-opacity="1" stroke="none" xml:space="preserve" x="0" y="9" font-family="Verdana" font-size="7pt" font-weight="400" font-style="italic"   >Bacillus cereus strain 1809202927_K</text> </g>                  <g fill="none" stroke="#000000" stroke-opacity="1" stroke-width="1" stroke-linecap="square" stroke-linejoin="bevel" transform="matrix(1,0,0,1,539.586,84.8923)" font-family="Verdana" font-size="7pt" font-weight="400" font-style="normal"  > <text fill="#000000" fill-opacity="1" stroke="none" xml:space="preserve" x="0" y="9" font-family="Verdana" font-size="7pt" font-weight="400" font-style="normal"   >5.58</text> </g>      <g fill="none" stroke="#ffffff" stroke-opacity="1" stroke-width="3" stroke-linecap="butt" stroke-linejoin="bevel" transform="matrix(1,0,0,1,537.586,82.8923)" font-family="Sans Serif" font-size="9pt" font-weight="400" font-style="normal"  > <rect x="0" y="0" width="25" height="16"/> </g>      <g fill="#91bfdb" fill-opacity="1" stroke="none" transform="matrix(1,0,0,1,564.586,86.3923)" font-family="Sans Serif" font-size="9pt" font-weight="400" font-style="normal"  > <rect x="0" y="0" width="50" height="9"/> </g>  <g fill="#ffffff" fill-opacity="1" stroke="none" transform="matrix(1,0,0,1,564.586,86.3923)" font-family="Sans Serif" font-size="9pt" font-weight="400" font-style="normal"  > <rect x="50" y="0" width="7.10543e-15" height="9"/> </g>      <g fill="none" stroke="#000000" stroke-opacity="1" stroke-width="1" stroke-linecap="butt" stroke-linejoin="bevel" transform="matrix(1,0,0,1,564.586,86.3923)" font-family="Sans Serif" font-size="9pt" font-weight="400" font-style="normal"  > <rect vector-effect="non-scaling-stroke" x="-0.5" y="-0.5" width="51" height="10"/> </g>      <g fill="none" stroke="#ffffff" stroke-opacity="1" stroke-width="3" stroke-linecap="butt" stroke-linejoin="bevel" transform="matrix(1,0,0,1,537.586,82.8923)" font-family="Sans Serif" font-size="9pt" font-weight="400" font-style="normal"  > <rect x="25" y="0" width="54" height="16"/> </g>      <g fill="none" stroke="#000000" stroke-opacity="1" stroke-width="1" stroke-linecap="square" stroke-linejoin="bevel" transform="matrix(1,0,0,1,618.586,84.8923)" font-family="Verdana" font-size="7pt" font-weight="400" font-style="normal"  > <text fill="#000000" fill-opacity="1" stroke="none" xml:space="preserve" x="0" y="9" font-family="Verdana" font-size="7pt" font-weight="400" font-style="normal"   >35</text> </g>      <g fill="none" stroke="#ffffff" stroke-opacity="1" stroke-width="3" stroke-linecap="butt" stroke-linejoin="bevel" transform="matrix(1,0,0,1,537.586,82.8923)" font-family="Sans Serif" font-size="9pt" font-weight="400" font-style="normal"  > <rect x="79" y="0" width="16" height="16"/> </g>      <g fill="#fc8d59" fill-opacity="1" stroke="none" transform="matrix(1,0,0,1,634.586,86.3923)" font-family="Sans Serif" font-size="9pt" font-weight="400" font-style="normal"  > <rect x="0" y="0" width="17.5" height="9"/> </g>  <g fill="#ffffff" fill-opacity="1" stroke="none" transform="matrix(1,0,0,1,634.586,86.3923)" font-family="Sans Serif" font-size="9pt" font-weight="400" font-style="normal"  > <rect x="17.5" y="0" width="32.5" height="9"/> </g>      <g fill="none" stroke="#000000" stroke-opacity="1" stroke-width="1" stroke-linecap="butt" stroke-linejoin="bevel" transform="matrix(1,0,0,1,634.586,86.3923)" font-family="Sans Serif" font-size="9pt" font-weight="400" font-style="normal"  > <rect vector-effect="non-scaling-stroke" x="-0.5" y="-0.5" width="51" height="10"/> </g>      <g fill="none" stroke="#ffffff" stroke-opacity="1" stroke-width="3" stroke-linecap="butt" stroke-linejoin="bevel" transform="matrix(1,0,0,1,537.586,82.8923)" font-family="Sans Serif" font-size="9pt" font-weight="400" font-style="normal"  > <rect x="95" y="0" width="54" height="16"/> </g>      <g fill="none" stroke="#000000" stroke-opacity="1" stroke-width="1" stroke-linecap="square" stroke-linejoin="bevel" transform="matrix(1,0,0,1,688.586,84.8923)" font-family="Verdana" font-size="7pt" font-weight="400" font-style="normal"  > <text fill="#000000" fill-opacity="1" stroke="none" xml:space="preserve" x="0" y="9" font-family="Verdana" font-size="7pt" font-weight="400" font-style="normal"   >84</text> </g>      <g fill="none" stroke="#ffffff" stroke-opacity="1" stroke-width="3" stroke-linecap="butt" stroke-linejoin="bevel" transform="matrix(1,0,0,1,537.586,82.8923)" font-family="Sans Serif" font-size="9pt" font-weight="400" font-style="normal"  > <rect x="149" y="0" width="16" height="16"/> </g>      <g fill="#99d594" fill-opacity="1" stroke="none" transform="matrix(1,0,0,1,714.794,86.3923)" font-family="Sans Serif" font-size="9pt" font-weight="400" font-style="normal"  > <rect x="0" y="0" width="42" height="9"/> </g>  <g fill="#ffffff" fill-opacity="1" stroke="none" transform="matrix(1,0,0,1,714.794,86.3923)" font-family="Sans Serif" font-size="9pt" font-weight="400" font-style="normal"  > <rect x="42" y="0" width="8" height="9"/> </g>      <g fill="none" stroke="#000000" stroke-opacity="1" stroke-width="1" stroke-linecap="butt" stroke-linejoin="bevel" transform="matrix(1,0,0,1,714.794,86.3923)" font-family="Sans Serif" font-size="9pt" font-weight="400" font-style="normal"  > <rect vector-effect="non-scaling-stroke" x="-0.5" y="-0.5" width="51" height="10"/> </g>      <g fill="none" stroke="#ffffff" stroke-opacity="1" stroke-width="3" stroke-linecap="butt" stroke-linejoin="bevel" transform="matrix(1,0,0,1,537.586,82.8923)" font-family="Sans Serif" font-size="9pt" font-weight="400" font-style="normal"  > <rect x="165" y="0" width="74.416" height="16"/> </g>      <g fill="none" stroke="#000000" stroke-opacity="1" stroke-width="1" stroke-linecap="square" stroke-linejoin="bevel" transform="matrix(1,0,0,1,779.002,84.8923)" font-family="Verdana" font-size="7pt" font-weight="400" font-style="normal"  > <text fill="#000000" fill-opacity="1" stroke="none" xml:space="preserve" x="0" y="9" font-family="Verdana" font-size="7pt" font-weight="400" font-style="normal"   >98.28</text> </g>      <g fill="none" stroke="#ffffff" stroke-opacity="1" stroke-width="3" stroke-linecap="butt" stroke-linejoin="bevel" transform="matrix(1,0,0,1,537.586,82.8923)" font-family="Sans Serif" font-size="9pt" font-weight="400" font-style="normal"  > <rect x="239.416" y="0" width="30" height="16"/> </g>      <g fill="#d7191c" fill-opacity="1" stroke="none" transform="matrix(1,0,0,1,812.715,86.3923)" font-family="Sans Serif" font-size="9pt" font-weight="400" font-style="normal"  > <rect x="0" y="0" width="49.14" height="9"/> </g>  <g fill="#ffffff" fill-opacity="1" stroke="none" transform="matrix(1,0,0,1,812.715,86.3923)" font-family="Sans Serif" font-size="9pt" font-weight="400" font-style="normal"  > <rect x="49.14" y="0" width="0.86" height="9"/> </g>      <g fill="none" stroke="#000000" stroke-opacity="1" stroke-width="1" stroke-linecap="butt" stroke-linejoin="bevel" transform="matrix(1,0,0,1,812.715,86.3923)" font-family="Sans Serif" font-size="9pt" font-weight="400" font-style="normal"  > <rect vector-effect="non-scaling-stroke" x="-0.5" y="-0.5" width="51" height="10"/> </g>      <g fill="none" stroke="#ffffff" stroke-opacity="1" stroke-width="3" stroke-linecap="butt" stroke-linejoin="bevel" transform="matrix(1,0,0,1,537.586,82.8923)" font-family="Sans Serif" font-size="9pt" font-weight="400" font-style="normal"  > <rect x="269.416" y="0" width="61.4256" height="16"/> </g>      <g fill="none" stroke="#000000" stroke-opacity="1" stroke-width="1" stroke-linecap="square" stroke-linejoin="bevel" transform="matrix(1,0,0,1,870.428,84.8923)" font-family="Verdana" font-size="7pt" font-weight="400" font-style="normal"  > <text fill="#000000" fill-opacity="1" stroke="none" xml:space="preserve" x="0" y="9" font-family="Verdana" font-size="7pt" font-weight="400" font-style="normal"   >3.61</text> </g>      <g fill="none" stroke="#ffffff" stroke-opacity="1" stroke-width="3" stroke-linecap="butt" stroke-linejoin="bevel" transform="matrix(1,0,0,1,537.586,82.8923)" font-family="Sans Serif" font-size="9pt" font-weight="400" font-style="normal"  > <rect x="330.842" y="0" width="25" height="16"/> </g>      <g fill="#000000" fill-opacity="1" stroke="none" transform="matrix(1,0,0,1,900.439,86.3923)" font-family="Sans Serif" font-size="9pt" font-weight="400" font-style="normal"  > <rect x="0" y="0" width="1.805" height="9"/> </g>  <g fill="#ffffff" fill-opacity="1" stroke="none" transform="matrix(1,0,0,1,900.439,86.3923)" font-family="Sans Serif" font-size="9pt" font-weight="400" font-style="normal"  > <rect x="1.805" y="0" width="48.195" height="9"/> </g>      <g fill="none" stroke="#000000" stroke-opacity="1" stroke-width="1" stroke-linecap="butt" stroke-linejoin="bevel" transform="matrix(1,0,0,1,900.439,86.3923)" font-family="Sans Serif" font-size="9pt" font-weight="400" font-style="normal"  > <rect vector-effect="non-scaling-stroke" x="-0.5" y="-0.5" width="51" height="10"/> </g>      <g fill="none" stroke="#ffffff" stroke-opacity="1" stroke-width="3" stroke-linecap="butt" stroke-linejoin="bevel" transform="matrix(1,0,0,1,537.586,82.8923)" font-family="Sans Serif" font-size="9pt" font-weight="400" font-style="normal"  > <rect x="355.842" y="0" width="64.0237" height="16"/> </g>      <g fill="none" stroke="#808080" stroke-opacity="1" stroke-dasharray="1,2" stroke-dashoffset="0" stroke-width="1" stroke-linecap="butt" stroke-linejoin="bevel" transform="matrix(1,0,0,1,184.573,82.8923)" font-family="Sans Serif" font-size="9pt" font-weight="400" font-style="normal"  > <polyline fill="none" vector-effect="non-scaling-stroke" points="183.001,8 353.013,8 " /> </g>            <g fill="none" stroke="#000000" stroke-opacity="1" stroke-width="1" stroke-linecap="butt" stroke-linejoin="bevel" transform="matrix(1,0,0,1,184.573,98.8923)" font-family="Sans Serif" font-size="9pt" font-weight="400" font-style="normal"  > <polyline fill="none" vector-effect="non-scaling-stroke" points="0,8 2.29476e-06,8 " /> </g>      <g fill="#0030c1" fill-opacity="1" stroke="#0030c1" stroke-opacity="1" stroke-width="1" stroke-linecap="square" stroke-linejoin="bevel" transform="matrix(1,0,0,1,184.573,105.392)" font-family="Sans Serif" font-size="9pt" font-weight="400" font-style="normal"  > <circle cx="1.5" cy="1.5" r="1.5"/> </g>          <g fill="none" stroke="#000000" stroke-opacity="1" stroke-width="1" stroke-linecap="square" stroke-linejoin="bevel" transform="matrix(1,0,0,1,187.573,100.892)" font-family="Verdana" font-size="7pt" font-weight="400" font-style="italic"  > <text fill="#000000" fill-opacity="1" stroke="none" xml:space="preserve" x="0" y="9" font-family="Verdana" font-size="7pt" font-weight="400" font-style="italic"   >Bacillus cereus strain 1810093995_B</text> </g>                  <g fill="none" stroke="#000000" stroke-opacity="1" stroke-width="1" stroke-linecap="square" stroke-linejoin="bevel" transform="matrix(1,0,0,1,539.586,100.892)" font-family="Verdana" font-size="7pt" font-weight="400" font-style="normal"  > <text fill="#000000" fill-opacity="1" stroke="none" xml:space="preserve" x="0" y="9" font-family="Verdana" font-size="7pt" font-weight="400" font-style="normal"   >5.58</text> </g>      <g fill="none" stroke="#ffffff" stroke-opacity="1" stroke-width="3" stroke-linecap="butt" stroke-linejoin="bevel" transform="matrix(1,0,0,1,537.586,98.8923)" font-family="Sans Serif" font-size="9pt" font-weight="400" font-style="normal"  > <rect x="0" y="0" width="25" height="16"/> </g>      <g fill="#91bfdb" fill-opacity="1" stroke="none" transform="matrix(1,0,0,1,564.586,102.392)" font-family="Sans Serif" font-size="9pt" font-weight="400" font-style="normal"  > <rect x="0" y="0" width="50" height="9"/> </g>  <g fill="#ffffff" fill-opacity="1" stroke="none" transform="matrix(1,0,0,1,564.586,102.392)" font-family="Sans Serif" font-size="9pt" font-weight="400" font-style="normal"  > <rect x="50" y="0" width="7.10543e-15" height="9"/> </g>      <g fill="none" stroke="#000000" stroke-opacity="1" stroke-width="1" stroke-linecap="butt" stroke-linejoin="bevel" transform="matrix(1,0,0,1,564.586,102.392)" font-family="Sans Serif" font-size="9pt" font-weight="400" font-style="normal"  > <rect vector-effect="non-scaling-stroke" x="-0.5" y="-0.5" width="51" height="10"/> </g>      <g fill="none" stroke="#ffffff" stroke-opacity="1" stroke-width="3" stroke-linecap="butt" stroke-linejoin="bevel" transform="matrix(1,0,0,1,537.586,98.8923)" font-family="Sans Serif" font-size="9pt" font-weight="400" font-style="normal"  > <rect x="25" y="0" width="54" height="16"/> </g>      <g fill="none" stroke="#000000" stroke-opacity="1" stroke-width="1" stroke-linecap="square" stroke-linejoin="bevel" transform="matrix(1,0,0,1,618.586,100.892)" font-family="Verdana" font-size="7pt" font-weight="400" font-style="normal"  > <text fill="#000000" fill-opacity="1" stroke="none" xml:space="preserve" x="0" y="9" font-family="Verdana" font-size="7pt" font-weight="400" font-style="normal"   >35</text> </g>      <g fill="none" stroke="#ffffff" stroke-opacity="1" stroke-width="3" stroke-linecap="butt" stroke-linejoin="bevel" transform="matrix(1,0,0,1,537.586,98.8923)" font-family="Sans Serif" font-size="9pt" font-weight="400" font-style="normal"  > <rect x="79" y="0" width="16" height="16"/> </g>      <g fill="#fc8d59" fill-opacity="1" stroke="none" transform="matrix(1,0,0,1,634.586,102.392)" font-family="Sans Serif" font-size="9pt" font-weight="400" font-style="normal"  > <rect x="0" y="0" width="17.5" height="9"/> </g>  <g fill="#ffffff" fill-opacity="1" stroke="none" transform="matrix(1,0,0,1,634.586,102.392)" font-family="Sans Serif" font-size="9pt" font-weight="400" font-style="normal"  > <rect x="17.5" y="0" width="32.5" height="9"/> </g>      <g fill="none" stroke="#000000" stroke-opacity="1" stroke-width="1" stroke-linecap="butt" stroke-linejoin="bevel" transform="matrix(1,0,0,1,634.586,102.392)" font-family="Sans Serif" font-size="9pt" font-weight="400" font-style="normal"  > <rect vector-effect="non-scaling-stroke" x="-0.5" y="-0.5" width="51" height="10"/> </g>      <g fill="none" stroke="#ffffff" stroke-opacity="1" stroke-width="3" stroke-linecap="butt" stroke-linejoin="bevel" transform="matrix(1,0,0,1,537.586,98.8923)" font-family="Sans Serif" font-size="9pt" font-weight="400" font-style="normal"  > <rect x="95" y="0" width="54" height="16"/> </g>      <g fill="none" stroke="#000000" stroke-opacity="1" stroke-width="1" stroke-linecap="square" stroke-linejoin="bevel" transform="matrix(1,0,0,1,688.586,100.892)" font-family="Verdana" font-size="7pt" font-weight="400" font-style="normal"  > <text fill="#000000" fill-opacity="1" stroke="none" xml:space="preserve" x="0" y="9" font-family="Verdana" font-size="7pt" font-weight="400" font-style="normal"   >84</text> </g>      <g fill="none" stroke="#ffffff" stroke-opacity="1" stroke-width="3" stroke-linecap="butt" stroke-linejoin="bevel" transform="matrix(1,0,0,1,537.586,98.8923)" font-family="Sans Serif" font-size="9pt" font-weight="400" font-style="normal"  > <rect x="149" y="0" width="16" height="16"/> </g>      <g fill="#99d594" fill-opacity="1" stroke="none" transform="matrix(1,0,0,1,714.794,102.392)" font-family="Sans Serif" font-size="9pt" font-weight="400" font-style="normal"  > <rect x="0" y="0" width="42" height="9"/> </g>  <g fill="#ffffff" fill-opacity="1" stroke="none" transform="matrix(1,0,0,1,714.794,102.392)" font-family="Sans Serif" font-size="9pt" font-weight="400" font-style="normal"  > <rect x="42" y="0" width="8" height="9"/> </g>      <g fill="none" stroke="#000000" stroke-opacity="1" stroke-width="1" stroke-linecap="butt" stroke-linejoin="bevel" transform="matrix(1,0,0,1,714.794,102.392)" font-family="Sans Serif" font-size="9pt" font-weight="400" font-style="normal"  > <rect vector-effect="non-scaling-stroke" x="-0.5" y="-0.5" width="51" height="10"/> </g>      <g fill="none" stroke="#ffffff" stroke-opacity="1" stroke-width="3" stroke-linecap="butt" stroke-linejoin="bevel" transform="matrix(1,0,0,1,537.586,98.8923)" font-family="Sans Serif" font-size="9pt" font-weight="400" font-style="normal"  > <rect x="165" y="0" width="74.416" height="16"/> </g>      <g fill="none" stroke="#000000" stroke-opacity="1" stroke-width="1" stroke-linecap="square" stroke-linejoin="bevel" transform="matrix(1,0,0,1,779.002,100.892)" font-family="Verdana" font-size="7pt" font-weight="400" font-style="normal"  > <text fill="#000000" fill-opacity="1" stroke="none" xml:space="preserve" x="0" y="9" font-family="Verdana" font-size="7pt" font-weight="400" font-style="normal"   >98.28</text> </g>      <g fill="none" stroke="#ffffff" stroke-opacity="1" stroke-width="3" stroke-linecap="butt" stroke-linejoin="bevel" transform="matrix(1,0,0,1,537.586,98.8923)" font-family="Sans Serif" font-size="9pt" font-weight="400" font-style="normal"  > <rect x="239.416" y="0" width="30" height="16"/> </g>      <g fill="#d7191c" fill-opacity="1" stroke="none" transform="matrix(1,0,0,1,812.715,102.392)" font-family="Sans Serif" font-size="9pt" font-weight="400" font-style="normal"  > <rect x="0" y="0" width="49.14" height="9"/> </g>  <g fill="#ffffff" fill-opacity="1" stroke="none" transform="matrix(1,0,0,1,812.715,102.392)" font-family="Sans Serif" font-size="9pt" font-weight="400" font-style="normal"  > <rect x="49.14" y="0" width="0.86" height="9"/> </g>      <g fill="none" stroke="#000000" stroke-opacity="1" stroke-width="1" stroke-linecap="butt" stroke-linejoin="bevel" transform="matrix(1,0,0,1,812.715,102.392)" font-family="Sans Serif" font-size="9pt" font-weight="400" font-style="normal"  > <rect vector-effect="non-scaling-stroke" x="-0.5" y="-0.5" width="51" height="10"/> </g>      <g fill="none" stroke="#ffffff" stroke-opacity="1" stroke-width="3" stroke-linecap="butt" stroke-linejoin="bevel" transform="matrix(1,0,0,1,537.586,98.8923)" font-family="Sans Serif" font-size="9pt" font-weight="400" font-style="normal"  > <rect x="269.416" y="0" width="61.4256" height="16"/> </g>      <g fill="none" stroke="#000000" stroke-opacity="1" stroke-width="1" stroke-linecap="square" stroke-linejoin="bevel" transform="matrix(1,0,0,1,870.428,100.892)" font-family="Verdana" font-size="7pt" font-weight="400" font-style="normal"  > <text fill="#000000" fill-opacity="1" stroke="none" xml:space="preserve" x="0" y="9" font-family="Verdana" font-size="7pt" font-weight="400" font-style="normal"   >3.61</text> </g>      <g fill="none" stroke="#ffffff" stroke-opacity="1" stroke-width="3" stroke-linecap="butt" stroke-linejoin="bevel" transform="matrix(1,0,0,1,537.586,98.8923)" font-family="Sans Serif" font-size="9pt" font-weight="400" font-style="normal"  > <rect x="330.842" y="0" width="25" height="16"/> </g>      <g fill="#000000" fill-opacity="1" stroke="none" transform="matrix(1,0,0,1,900.439,102.392)" font-family="Sans Serif" font-size="9pt" font-weight="400" font-style="normal"  > <rect x="0" y="0" width="1.805" height="9"/> </g>  <g fill="#ffffff" fill-opacity="1" stroke="none" transform="matrix(1,0,0,1,900.439,102.392)" font-family="Sans Serif" font-size="9pt" font-weight="400" font-style="normal"  > <rect x="1.805" y="0" width="48.195" height="9"/> </g>      <g fill="none" stroke="#000000" stroke-opacity="1" stroke-width="1" stroke-linecap="butt" stroke-linejoin="bevel" transform="matrix(1,0,0,1,900.439,102.392)" font-family="Sans Serif" font-size="9pt" font-weight="400" font-style="normal"  > <rect vector-effect="non-scaling-stroke" x="-0.5" y="-0.5" width="51" height="10"/> </g>      <g fill="none" stroke="#ffffff" stroke-opacity="1" stroke-width="3" stroke-linecap="butt" stroke-linejoin="bevel" transform="matrix(1,0,0,1,537.586,98.8923)" font-family="Sans Serif" font-size="9pt" font-weight="400" font-style="normal"  > <rect x="355.842" y="0" width="64.0237" height="16"/> </g>      <g fill="none" stroke="#808080" stroke-opacity="1" stroke-dasharray="1,2" stroke-dashoffset="0" stroke-width="1" stroke-linecap="butt" stroke-linejoin="bevel" transform="matrix(1,0,0,1,184.573,98.8923)" font-family="Sans Serif" font-size="9pt" font-weight="400" font-style="normal"  > <polyline fill="none" vector-effect="non-scaling-stroke" points="182,8 353.013,8 " /> </g>                                  <g fill="none" stroke="#000000" stroke-opacity="1" stroke-width="1" stroke-linecap="square" stroke-linejoin="bevel" transform="matrix(1,0,0,1,1,115.892)" font-family="Sans Serif" font-size="9pt" font-weight="400" font-style="normal"  > <polyline fill="none" vector-effect="none" points="0,5 50,5 " /> </g>      <g fill="none" stroke="#000000" stroke-opacity="1" stroke-width="1" stroke-linecap="square" stroke-linejoin="bevel" transform="matrix(1,0,0,1,1,115.892)" font-family="Sans Serif" font-size="9pt" font-weight="400" font-style="normal"  > <polyline fill="none" vector-effect="none" points="0,0 0,10 " /> </g>      <g fill="none" stroke="#000000" stroke-opacity="1" stroke-width="1" stroke-linecap="square" stroke-linejoin="bevel" transform="matrix(1,0,0,1,1,115.892)" font-family="Sans Serif" font-size="9pt" font-weight="400" font-style="normal"  > <polyline fill="none" vector-effect="none" points="50,0 50,10 " /> </g>      <g fill="none" stroke="#000000" stroke-opacity="1" stroke-width="1" stroke-linecap="square" stroke-linejoin="bevel" transform="matrix(1,0,0,1,1,125.892)" font-family="Sans Serif" font-size="9pt" font-weight="400" font-style="normal"  > <text fill="#000000" fill-opacity="1" stroke="none" xml:space="preserve" x="0" y="12" font-family="Sans Serif" font-size="9pt" font-weight="400" font-style="normal"   >0.152522</text> </g>     </g> </svg> 