<?xml version="1.0" encoding="utf-8"?>
<!DOCTYPE svg
  PUBLIC '-//W3C//DTD SVG 1.0//EN'
  'http://www.w3.org/TR/2001/REC-SVG-20010904/DTD/svg10.dtd'>
<svg height="150" preserveAspectRatio="xMinYMin meet" version="1.0" viewBox="0 0 570 150" width="570" xmlns="http://www.w3.org/2000/svg" xmlns:xlink="http://www.w3.org/1999/xlink">
	<title>...</title>
	<desc>...</desc>
	<clipPath id="clip">
		<rect height="150" width="570" x="0" y="0"/>
	</clipPath>
	<g id="group" style="clip-path: url(#clip)" transform="scale(1,-1) translate(0,-150)">
		<g transform="">
			<polygon points="28.500000 44.625000, 541.470002 44.625000, 541.470002 105.375000, 28.500000 105.375000" style="stroke-width: 1; stroke-linecap: butt; stroke: rgb(96%,96%,96%); fill: rgb(96%,96%,96%);"/>
			<polygon points="40.409304 96.262500, 55.370040 96.262500, 55.370040 105.375000, 70.557540 90.187500, 55.370040 75.000000, 55.370040 84.112500, 40.409304 84.112500" style="stroke-linecap: round; stroke-width: 1; stroke: rgb(25%,94%,22%); fill: rgb(25%,94%,22%);"/>
			<polygon points="75.147272 96.262500, 91.007956 96.262500, 91.007956 105.375000, 106.195456 90.187500, 91.007956 75.000000, 91.007956 84.112500, 75.147272 84.112500" style="stroke-width: 1; stroke-linecap: round; stroke: rgb(5%,37%,4%); fill: rgb(5%,37%,4%);"/>
			<polygon points="141.173411 65.887500, 121.262963 65.887500, 121.262963 75.000000, 106.075463 59.812500, 121.262963 44.625000, 121.262963 53.737500, 141.173411 53.737500" style="stroke-linecap: round; stroke-width: 1; stroke: rgb(25%,94%,22%); fill: rgb(25%,94%,22%);"/>
			<polygon points="210.799339 65.887500, 156.960876 65.887500, 156.960876 75.000000, 141.773376 59.812500, 156.960876 44.625000, 156.960876 53.737500, 210.799339 53.737500" style="stroke-width: 1; stroke-linecap: round; stroke: rgb(5%,37%,4%); fill: rgb(5%,37%,4%);"/>
			<polygon points="268.395971 65.887500, 229.496634 65.887500, 229.496634 75.000000, 214.309134 59.812500, 229.496634 44.625000, 229.496634 53.737500, 268.395971 53.737500" style="stroke-linecap: round; stroke-width: 1; stroke: rgb(25%,94%,22%); fill: rgb(25%,94%,22%);"/>
			<polygon points="301.484036 65.887500, 283.643467 65.887500, 283.643467 75.000000, 268.455967 59.812500, 283.643467 44.625000, 283.643467 53.737500, 301.484036 53.737500" style="stroke-width: 1; stroke-linecap: round; stroke: rgb(100%,0%,0%); fill: rgb(100%,0%,0%);"/>
			<polygon points="406.627887 65.887500, 316.791529 65.887500, 316.791529 75.000000, 301.604029 59.812500, 316.791529 44.625000, 316.791529 53.737500, 406.627887 53.737500" style="stroke-linecap: round; stroke-width: 1; stroke: rgb(25%,94%,22%); fill: rgb(25%,94%,22%);"/>
			<polygon points="412.027571 96.262500, 412.027571 96.262500, 412.027571 105.375000, 414.187445 90.187500, 412.027571 75.000000, 412.027571 84.112500, 412.027571 84.112500" style="stroke-width: 1; stroke-linecap: round; stroke: rgb(100%,64%,0%); fill: rgb(100%,64%,0%);"/>
			<polygon points="415.177387 96.262500, 439.857556 96.262500, 439.857556 105.375000, 455.045056 90.187500, 439.857556 75.000000, 439.857556 84.112500, 415.177387 84.112500" style="stroke-linecap: round; stroke-width: 1; stroke: rgb(25%,94%,22%); fill: rgb(25%,94%,22%);"/>
			<polygon points="460.384744 96.262500, 463.556170 96.262500, 463.556170 105.375000, 478.743670 90.187500, 463.556170 75.000000, 463.556170 84.112500, 460.384744 84.112500" style="stroke-width: 1; stroke-linecap: round; stroke: rgb(5%,37%,4%); fill: rgb(5%,37%,4%);"/>
			<polygon points="479.013654 96.262500, 501.803933 96.262500, 501.803933 105.375000, 516.991433 90.187500, 501.803933 75.000000, 501.803933 84.112500, 479.013654 84.112500" style="stroke-linecap: round; stroke-width: 1; stroke: rgb(25%,94%,22%); fill: rgb(25%,94%,22%);"/>
			<path d="M 541.470002,44.625000 L 541.470002,105.375000 Z" style="stroke-width: 1; stroke-linecap: butt; stroke: rgb(0%,0%,0%);"/>
			<path d="M 28.500000,75.000000 L 541.470002,75.000000 Z" style="stroke-linecap: butt; stroke-width: 1; stroke: rgb(0%,0%,0%);"/>
			<path d="M 28.500000,44.625000 L 28.500000,105.375000 Z" style="stroke-width: 1; stroke-linecap: butt; stroke: rgb(0%,0%,0%);"/>
			<path d="M 328.482457,75.000000 L 328.482457,84.112500 Z" style="stroke-linecap: butt; stroke-width: 1; stroke: rgb(0%,0%,0%);"/>
			<g transform=" matrix(0.766044, 0.642788, -0.642788, 0.766044, 55.483422, 105.375000)">
				<text style="font-size: 10px; font-family: Helvetica; fill: rgb(0%,0%,0%);" transform="translate(0,0) scale(1,-1)" x="0" y="0">gpsA</text>
			</g>
			<g transform=" matrix(0.766044, 0.642788, -0.642788, 0.766044, 90.671364, 105.375000)">
				<text style="font-size: 10px; font-family: Helvetica; fill: rgb(0%,0%,0%);" transform="translate(0,0) scale(1,-1)" x="0" y="0">CP1015</text>
			</g>
			<g transform=" matrix(0.766044, 0.642788, -0.642788, 0.766044, 123.624437, 105.375000)">
				<text style="font-size: 10px; font-family: Helvetica; fill: rgb(0%,0%,0%);" transform="translate(0,0) scale(1,-1)" x="0" y="0">CP1016</text>
			</g>
			<g transform=" matrix(0.766044, 0.642788, -0.642788, 0.766044, 176.286358, 105.375000)">
				<text style="font-size: 10px; font-family: Helvetica; fill: rgb(0%,0%,0%);" transform="translate(0,0) scale(1,-1)" x="0" y="0">CP1017</text>
			</g>
			<g transform=" matrix(0.766044, 0.642788, -0.642788, 0.766044, 241.352552, 105.375000)">
				<text style="font-size: 10px; font-family: Helvetica; fill: rgb(0%,0%,0%);" transform="translate(0,0) scale(1,-1)" x="0" y="0">CP1018</text>
			</g>
			<g transform=" matrix(0.766044, 0.642788, -0.642788, 0.766044, 284.970002, 105.375000)">
				<text style="font-size: 10px; font-family: Helvetica; fill: rgb(0%,0%,0%);" transform="translate(0,0) scale(1,-1)" x="0" y="0">CP1019</text>
			</g>
			<g transform=" matrix(0.766044, 0.642788, -0.642788, 0.766044, 354.115958, 105.375000)">
				<text style="font-size: 10px; font-family: Helvetica; fill: rgb(0%,0%,0%);" transform="translate(0,0) scale(1,-1)" x="0" y="0">CP1020</text>
			</g>
			<g transform=" matrix(0.766044, 0.642788, -0.642788, 0.766044, 413.107508, 105.375000)">
				<text style="font-size: 10px; font-family: Helvetica; fill: rgb(0%,0%,0%);" transform="translate(0,0) scale(1,-1)" x="0" y="0">tRNA-Gly-1</text>
			</g>
			<g transform=" matrix(0.766044, 0.642788, -0.642788, 0.766044, 435.111222, 105.375000)">
				<text style="font-size: 10px; font-family: Helvetica; fill: rgb(0%,0%,0%);" transform="translate(0,0) scale(1,-1)" x="0" y="0">tig</text>
			</g>
			<g transform=" matrix(0.766044, 0.642788, -0.642788, 0.766044, 469.564207, 105.375000)">
				<text style="font-size: 10px; font-family: Helvetica; fill: rgb(0%,0%,0%);" transform="translate(0,0) scale(1,-1)" x="0" y="0">clpP</text>
			</g>
			<g transform=" matrix(0.766044, 0.642788, -0.642788, 0.766044, 498.002544, 105.375000)">
				<text style="font-size: 10px; font-family: Helvetica; fill: rgb(0%,0%,0%);" transform="translate(0,0) scale(1,-1)" x="0" y="0">clpX</text>
			</g>
			<g transform=" matrix(1.000000, 0.000000, -0.000000, 1.000000, 28.000000, 44.625000)">
				<text style="font-size: 8px; font-family: Helvetica; fill: rgb(60%,60%,60%);" transform="translate(0,0) scale(1,-1)" x="0" y="0">CpnA</text>
			</g>
			<g transform=" matrix(1.000000, 0.000000, -0.000000, 1.000000, 130.000000, 44.625000)">
				<text style="font-size: 8px; font-family: Helvetica; fill: rgb(60%,60%,60%);" transform="translate(0,0) scale(1,-1)" x="0" y="0">CpnA</text>
			</g>
			<g transform=" matrix(1.000000, 0.000000, -0.000000, 1.000000, 232.000000, 44.625000)">
				<text style="font-size: 8px; font-family: Helvetica; fill: rgb(60%,60%,60%);" transform="translate(0,0) scale(1,-1)" x="0" y="0">CpnA</text>
			</g>
			<g transform=" matrix(1.000000, 0.000000, -0.000000, 1.000000, 334.000000, 44.625000)">
				<text style="font-size: 8px; font-family: Helvetica; fill: rgb(60%,60%,60%);" transform="translate(0,0) scale(1,-1)" x="0" y="0">CpnA</text>
			</g>
			<g transform=" matrix(1.000000, 0.000000, -0.000000, 1.000000, 436.000000, 44.625000)">
				<text style="font-size: 8px; font-family: Helvetica; fill: rgb(60%,60%,60%);" transform="translate(0,0) scale(1,-1)" x="0" y="0">CpnA</text>
			</g>
		</g>
	</g>
</svg>
