<?xml version="1.0" encoding="UTF-8" standalone="no"?>
<svg
   width="24"
   height="24"
   viewBox="0 0 24 24"
   version="1.1"
   id="svg1"
   xmlns="http://www.w3.org/2000/svg"
   xmlns:svg="http://www.w3.org/2000/svg">
  <defs
     id="defs1" />
  <path
     d="M 21.169,19.754 C 21.691,18.964 22,18.019 22,17 c 0,-2.761 -2.238,-5 -5,-5 -2.762,0 -5,2.239 -5,5 0,2.761 2.238,5 5,5 1.019,0 1.964,-0.309 2.755,-0.832 L 22.586,24 24,22.586 Z M 17,20 c -1.654,0 -3,-1.346 -3,-3 0,-1.654 1.346,-3 3,-3 1.654,0 3,1.346 3,3 0,1.654 -1.346,3 -3,3 z m -4.89,2 H 5 l 2.599,-3 h 2.696 c 0.345,1.152 0.976,2.18 1.815,3 z M 10,17 H 0 V 0 H 22 V 12.11 C 21.426,11.524 20.749,11.042 20,10.685 V 2 H 2 v 13 h 8.295 C 10.105,15.634 10,16.305 10,17 Z M 6,13 H 4 V 7 h 2 z m 3,0 H 7 V 4 h 2 z m 3,0 H 10 V 9 h 2 z"
     id="path1"
     style="fill:#ffffff" />
</svg>
